HIERARCHY
ROOT Hips
{
	OFFSET 0.000000 0.000000 0.000000 
	CHANNELS 6 Xposition Yposition Zposition Zrotation Yrotation Xrotation
	JOINT LeftUpLeg
	{
		OFFSET 1.363060 -1.794630 0.839290 
		CHANNELS 3 Zrotation Yrotation Xrotation
		JOINT LeftLeg
		{
			OFFSET 2.448110 -6.726130 0.000000 
			CHANNELS 3 Zrotation Yrotation Xrotation
			JOINT LeftFoot
			{
				OFFSET 2.562200 -7.039590 0.000000 
				CHANNELS 3 Zrotation Yrotation Xrotation
				JOINT LeftToeBase
				{
					OFFSET 0.157640 -0.433110 2.322550 
					CHANNELS 3 Zrotation Yrotation Xrotation
					End Site
					{
						OFFSET 0.000000 0.000000 0.000000 
					}
				}
			}
		}
	}
	JOINT RightUpLeg
	{
		OFFSET -1.305520 -1.794630 0.839290 
		CHANNELS 3 Zrotation Yrotation Xrotation
		JOINT RightLeg
		{
			OFFSET -2.542530 -6.985550 0.000000 
			CHANNELS 3 Zrotation Yrotation Xrotation
			JOINT RightFoot
			{
				OFFSET -2.568260 -7.056230 0.000000 
				CHANNELS 3 Zrotation Yrotation Xrotation
				JOINT RightToeBase
				{
					OFFSET -0.164730 -0.452590 2.363150 
					CHANNELS 3 Zrotation Yrotation Xrotation
					End Site
					{
						OFFSET 0.000000 0.000000 0.000000 
					}
				}
			}
		}
	}
	JOINT Spine
	{
		OFFSET 0.028270 2.035590 -0.193380 
		CHANNELS 3 Zrotation Yrotation Xrotation
		JOINT Spine1
		{
			OFFSET 0.056720 2.048850 -0.042750 
			CHANNELS 3 Zrotation Yrotation Xrotation
			JOINT Neck1
			{
				OFFSET -0.054170 1.746240 0.172020 
				CHANNELS 3 Zrotation Yrotation Xrotation
				JOINT Head
				{
					OFFSET 0.104070 1.761360 -0.123970 
					CHANNELS 3 Zrotation Yrotation Xrotation
					End Site
					{
						OFFSET 0.000000 0.000000 0.000000 
					}
				}
			}
			JOINT LeftArm
			{
				OFFSET 3.362410 1.200890 -0.311210 
				CHANNELS 3 Zrotation Yrotation Xrotation
				JOINT LeftForeArm
				{
					OFFSET 4.983000 -0.000000 -0.000000 
					CHANNELS 3 Zrotation Yrotation Xrotation
					JOINT LeftHand
					{
						OFFSET 3.483560 -0.000000 -0.000000 
						CHANNELS 3 Zrotation Yrotation Xrotation
						JOINT LeftHandIndex1
						{
							OFFSET 0.715260 -0.000000 -0.000000 
							CHANNELS 3 Zrotation Yrotation Xrotation
							End Site
							{
								OFFSET 0.000000 0.000000 0.000000 
							}
						}
					}
				}
			}
			JOINT RightArm
			{
				OFFSET -3.136600 1.374050 -0.404650 
				CHANNELS 3 Zrotation Yrotation Xrotation
				JOINT RightForeArm
				{
					OFFSET -5.241900 -0.000000 -0.000000 
					CHANNELS 3 Zrotation Yrotation Xrotation
					JOINT RightHand
					{
						OFFSET -3.444170 -0.000000 -0.000000 
						CHANNELS 3 Zrotation Yrotation Xrotation
						JOINT RightHandIndex1
						{
							OFFSET -0.622530 -0.000000 -0.000000 
							CHANNELS 3 Zrotation Yrotation Xrotation
							End Site
							{
								OFFSET 0.000000 0.000000 0.000000 
							}
						}
					}
				}
			}
		}
	}
}
MOTION
Frames: 9
Frame Time: 0.041667
4.169675 16.637705 -6.702753 -11.948631 34.698886 5.303038 3.151569 -0.764527 -44.317724 7.927162 16.512039 52.311088 1.427598 -2.586439 -19.875090 0.985500 -6.318700 -17.712000 2.974686 10.164523 -7.885718 -4.355119 -12.386484 38.077079 1.071859 -31.215383 14.894091 -2.870600 10.482600 -30.554000 1.053962 0.005576 -3.909361 0.627036 -0.164266 -1.921055 5.405618 -9.461624 10.547655 -0.544500 -4.256900 3.602900 -80.315227 11.005301 52.733583 43.170085 -49.243989 -16.308636 -0.647238 1.938476 -20.319533 -7.125000 0.000000 0.000000 47.893527 9.220880 9.486730 -143.357955 45.669992 -101.641855 -2.463813 -1.459808 -35.537722 7.125000 0.000000 0.000000 
4.279767 16.709127 -6.695780 -11.896822 36.864571 5.095893 2.745668 -2.593833 -43.655289 7.630327 16.316208 51.369937 1.414829 -2.820045 -19.623721 0.902200 -6.053200 -16.938800 3.151794 10.472734 -8.821582 -5.202538 -13.322841 41.699376 0.154068 -27.549614 17.427549 -2.583400 9.988000 -28.937900 1.050467 -0.046949 -3.932818 0.718601 -0.180858 -1.949374 5.437548 -9.615599 10.573528 -0.524100 -4.334500 3.616500 -80.433942 10.416698 52.861136 43.529866 -49.503496 -16.563132 -0.669197 1.943731 -20.728898 -7.125000 0.000000 0.000000 48.878902 9.506041 5.078360 -143.166403 45.763651 -101.404838 -2.202481 -1.377593 -35.874418 7.125000 0.000000 0.000000 
4.384683 16.778120 -6.687011 -11.829824 38.962330 4.878509 2.310441 -4.253960 -42.959231 7.336100 16.110845 50.417734 1.405426 -3.104731 -19.367604 0.830900 -5.815200 -16.249100 3.326186 10.655912 -9.977088 -6.166033 -14.251216 45.556649 -0.716870 -22.474602 19.660654 -2.496800 9.832100 -28.434600 1.039469 -0.072853 -3.944116 0.816497 -0.185640 -1.984076 5.451449 -9.764550 10.584969 -0.509900 -4.411400 3.619900 -80.533250 9.831318 53.000173 43.904737 -49.766029 -16.826304 -0.689200 1.947178 -21.179651 -7.125000 0.000000 0.000000 49.975579 9.821587 1.034723 -142.920520 45.874305 -101.193931 -1.790957 -1.272424 -35.580029 7.125000 0.000000 0.000000 
4.484632 16.846162 -6.675494 -11.753026 40.988921 4.645257 1.840716 -5.706596 -42.226669 7.043019 15.893705 49.449179 1.400315 -3.427674 -19.120448 0.780800 -5.641500 -15.747600 3.522101 10.799843 -11.272635 -7.216134 -15.135748 49.543232 -1.282738 -16.806035 20.967167 -2.474700 9.791700 -28.304700 1.012524 -0.078777 -3.950720 0.891695 -0.182914 -2.043624 5.446887 -9.904888 10.596171 -0.507000 -4.484400 3.618200 -80.588551 9.280199 53.143102 44.286883 -50.023072 -17.091871 -0.706907 1.948539 -21.622303 -7.125000 0.000000 0.000000 51.204423 10.156461 -2.464067 -142.628870 45.951405 -101.100604 -1.246715 -1.158620 -34.747729 7.125000 0.000000 0.000000 
4.580356 16.913570 -6.660491 -11.674509 42.943685 4.391329 1.336612 -6.928384 -41.464476 6.751886 15.665559 48.466862 1.399076 -3.794010 -18.876132 0.749100 -5.528200 -15.421300 3.760338 10.936646 -12.658402 -8.325605 -15.950755 53.573564 -1.521680 -11.308252 21.406297 -2.444100 9.735600 -28.124700 0.978956 -0.077153 -3.949497 0.960097 -0.178769 -2.113025 5.416993 -10.025257 10.617390 -0.515600 -4.547600 3.617700 -80.625683 8.770442 53.265161 44.660106 -50.266915 -17.348850 -0.722124 1.948069 -22.010071 -7.125000 0.000000 0.000000 52.539311 10.533836 -5.281425 -142.290166 45.963856 -101.179930 -0.646685 -1.002774 -33.479979 7.125000 0.000000 0.000000 
4.673015 16.980449 -6.642530 -11.582570 44.835031 4.142984 0.788937 -7.923269 -40.697870 6.463043 15.426733 47.472875 1.400201 -4.200901 -18.625579 0.731500 -5.464300 -15.237700 4.027803 11.056471 -14.136609 -9.472649 -16.681765 57.588587 -1.539222 -6.488670 21.371775 -2.341100 9.543100 -27.509400 0.927614 -0.071952 -3.944409 0.990974 -0.175560 -2.188002 5.352803 -10.129750 10.657205 -0.546300 -4.601800 3.620800 -80.623931 8.293212 53.363289 45.001451 -50.483747 -17.580876 -0.733962 1.945233 -22.336595 -7.125000 0.000000 0.000000 53.989860 10.936766 -7.391495 -141.905307 45.922228 -101.394550 -0.094056 -0.737477 -31.815809 7.125000 0.000000 0.000000 
4.763244 17.046801 -6.619920 -11.503514 46.665809 3.871786 0.219376 -8.683808 -39.918858 6.178209 15.179830 46.473392 1.405013 -4.657654 -18.375113 0.723600 -5.435600 -15.155300 4.372698 11.159571 -15.664872 -10.639545 -17.320361 61.540947 -1.453698 -2.493952 21.261474 -2.242000 9.353000 -26.905900 0.870308 -0.070506 -3.927727 1.009433 -0.175901 -2.247919 5.278224 -10.213789 10.729372 -0.584400 -4.643900 3.636200 -80.601586 7.846569 53.421030 45.289907 -50.665598 -17.776516 -0.741348 1.941831 -22.595726 -7.125000 0.000000 0.000000 55.518259 11.375853 -8.866202 -141.465898 45.898653 -101.590910 0.354625 -0.323814 -29.695588 7.125000 0.000000 0.000000 
4.852417 17.112624 -6.593506 -11.419388 48.450312 3.604378 -0.376067 -9.254397 -39.140022 5.899059 14.927467 45.476681 1.411566 -5.142035 -18.123597 0.718800 -5.417600 -15.103700 4.766683 11.225352 -17.256594 -11.810776 -17.865997 65.400354 -1.344123 0.525138 21.250237 -2.154500 9.180700 -26.362200 0.815065 -0.084363 -3.903353 1.042303 -0.184364 -2.292472 5.189373 -10.266966 10.840380 -0.626000 -4.669100 3.667800 -80.597851 7.419838 53.426670 45.498496 -50.801407 -17.916433 -0.745190 1.937886 -22.789537 -7.125000 0.000000 0.000000 57.062944 11.850067 -9.839218 -140.954888 45.978888 -101.597441 0.712357 0.198184 -27.059553 7.125000 0.000000 0.000000 
4.941907 17.176862 -6.563500 -11.335756 50.203960 3.345324 -0.982790 -9.682700 -38.368852 5.628478 14.673012 44.494745 1.417330 -5.632440 -17.866836 0.712000 -5.392500 -15.031400 5.202120 11.216084 -18.923745 -12.973227 -18.321356 69.142073 -1.257422 2.613590 21.387811 -2.105400 9.082200 -26.052700 0.751055 -0.113256 -3.878443 1.050852 -0.201302 -2.329548 5.101140 -10.301182 10.996168 -0.668400 -4.682000 3.716700 -80.583607 7.007884 53.403999 45.615885 -50.887319 -17.998921 -0.745205 1.937142 -22.957884 -7.125000 0.000000 0.000000 58.624445 12.323439 -10.457953 -140.348540 46.209788 -101.328466 1.016455 0.731600 -23.971237 7.125000 0.000000 0.000000 
